<svg width="19" height="19" viewBox="0 0 19 19" fill="none" xmlns="http://www.w3.org/2000/svg">
<path d="M12.1437 9.49998L18.3312 3.33123C18.5061 3.15641 18.6447 2.94887 18.7394 2.72045C18.834 2.49203 18.8827 2.24722 18.8827 1.99998C18.8827 1.75275 18.834 1.50793 18.7394 1.27951C18.6447 1.0511 18.5061 0.843554 18.3312 0.668731C18.1564 0.493909 17.9489 0.355233 17.7205 0.26062C17.4921 0.166007 17.2472 0.11731 17 0.11731C16.7528 0.11731 16.5079 0.166007 16.2795 0.26062C16.0511 0.355233 15.8436 0.493909 15.6687 0.668731L8.16875 8.16873C7.99301 8.34304 7.85352 8.55041 7.75833 8.7789C7.66314 9.00739 7.61413 9.25246 7.61413 9.49998C7.61413 9.7475 7.66314 9.99258 7.75833 10.2211C7.85352 10.4495 7.99301 10.6569 8.16875 10.8312L15.6687 18.3312C15.8431 18.507 16.0504 18.6465 16.2789 18.7417C16.5074 18.8368 16.7525 18.8859 17 18.8859C17.2475 18.8859 17.4926 18.8368 17.7211 18.7417C17.9496 18.6465 18.1569 18.507 18.3312 18.3312C18.507 18.1569 18.6465 17.9495 18.7417 17.7211C18.8369 17.4926 18.8859 17.2475 18.8859 17C18.8859 16.7525 18.8369 16.5074 18.7417 16.2789C18.6465 16.0504 18.507 15.843 18.3312 15.6687L12.1437 9.49998ZM2 0.124982C1.50272 0.124982 1.02581 0.322526 0.674175 0.674157C0.322544 1.02579 0.125 1.5027 0.125 1.99998V17C0.125 17.4973 0.322544 17.9742 0.674175 18.3258C1.02581 18.6774 1.50272 18.875 2 18.875C2.49728 18.875 2.97419 18.6774 3.32582 18.3258C3.67746 17.9742 3.875 17.4973 3.875 17V1.99998C3.875 1.5027 3.67746 1.02579 3.32582 0.674157C2.97419 0.322526 2.49728 0.124982 2 0.124982Z" fill="black"/>
</svg>
