<svg width="35" height="39" viewBox="0 0 35 39" fill="none" xmlns="http://www.w3.org/2000/svg">
<path d="M34.3125 25.125C34.3083 23.9995 33.9666 22.9011 33.3315 21.9718C32.6964 21.0426 31.7972 20.3252 30.75 19.9125L34.2562 6.78752C34.3295 6.50799 34.3371 6.21532 34.2786 5.93235C34.2201 5.64939 34.0969 5.38378 33.9188 5.15627C33.7366 4.94309 33.509 4.77347 33.2527 4.6599C32.9963 4.54633 32.7178 4.49169 32.4375 4.50002H6.75L6.13125 2.13752C6.02367 1.73798 5.78696 1.38524 5.45799 1.13427C5.12901 0.883304 4.72627 0.748202 4.3125 0.750018H0.5625V4.50002H2.86875L7.51875 21.8625C7.62863 22.2716 7.87376 22.6314 8.21423 22.8833C8.5547 23.1353 8.97044 23.2645 9.39375 23.25H28.6875C29.1848 23.25 29.6617 23.4476 30.0133 23.7992C30.365 24.1508 30.5625 24.6277 30.5625 25.125C30.5625 25.6223 30.365 26.0992 30.0133 26.4508C29.6617 26.8025 29.1848 27 28.6875 27H4.3125C3.81522 27 3.33831 27.1976 2.98668 27.5492C2.63504 27.9008 2.4375 28.3777 2.4375 28.875C2.4375 29.3723 2.63504 29.8492 2.98668 30.2008C3.33831 30.5525 3.81522 30.75 4.3125 30.75H6.525C6.21663 31.5996 6.11754 32.5111 6.23612 33.4071C6.3547 34.3031 6.68746 35.1574 7.20622 35.8976C7.72498 36.6377 8.41447 37.242 9.21629 37.6591C10.0181 38.0763 10.9086 38.2941 11.8125 38.2941C12.7164 38.2941 13.6069 38.0763 14.4087 37.6591C15.2105 37.242 15.9 36.6377 16.4188 35.8976C16.9375 35.1574 17.2703 34.3031 17.3889 33.4071C17.5075 32.5111 17.4084 31.5996 17.1 30.75H21.525C21.2443 31.5237 21.1368 32.3495 21.21 33.1692C21.2832 33.9889 21.5354 34.7826 21.9488 35.4942C22.3622 36.2058 22.9268 36.8181 23.6026 37.2877C24.2784 37.7574 25.049 38.0731 25.8601 38.2124C26.6712 38.3518 27.503 38.3115 28.2969 38.0943C29.0907 37.8772 29.8272 37.4885 30.4544 36.9556C31.0816 36.4228 31.5843 35.7589 31.927 35.0106C32.2696 34.2623 32.4439 33.448 32.4375 32.625C32.434 31.6563 32.1753 30.7057 31.6875 29.8688C32.4893 29.3633 33.1503 28.6633 33.6092 27.834C34.0682 27.0047 34.3101 26.0728 34.3125 25.125ZM26.9813 19.5H10.875L7.7625 8.25002H30L26.9813 19.5ZM11.8125 34.5C11.4417 34.5 11.0791 34.39 10.7708 34.184C10.4625 33.978 10.2221 33.6852 10.0802 33.3425C9.93831 32.9999 9.90118 32.6229 9.97353 32.2592C10.0459 31.8955 10.2245 31.5614 10.4867 31.2992C10.7489 31.037 11.083 30.8584 11.4467 30.786C11.8104 30.7137 12.1874 30.7508 12.53 30.8927C12.8726 31.0347 13.1655 31.275 13.3715 31.5833C13.5775 31.8917 13.6875 32.2542 13.6875 32.625C13.6875 33.1223 13.49 33.5992 13.1383 33.9508C12.7867 34.3025 12.3098 34.5 11.8125 34.5ZM26.8125 34.5C26.4417 34.5 26.0791 34.39 25.7708 34.184C25.4625 33.978 25.2221 33.6852 25.0802 33.3425C24.9383 32.9999 24.9012 32.6229 24.9735 32.2592C25.0459 31.8955 25.2244 31.5614 25.4867 31.2992C25.7489 31.037 26.083 30.8584 26.4467 30.786C26.8104 30.7137 27.1874 30.7508 27.53 30.8927C27.8726 31.0347 28.1655 31.275 28.3715 31.5833C28.5775 31.8917 28.6875 32.2542 28.6875 32.625C28.6875 33.1223 28.49 33.5992 28.1383 33.9508C27.7867 34.3025 27.3098 34.5 26.8125 34.5Z" fill="black"/>
</svg>
