<svg width="33" height="39" viewBox="0 0 33 39" fill="none" xmlns="http://www.w3.org/2000/svg">
<path d="M32.3625 15.0562C32.0992 12.3167 31.131 9.69203 29.5522 7.43778C27.9733 5.18354 25.8376 3.37656 23.3531 2.1928C20.8685 1.00904 18.1197 0.48885 15.3744 0.682881C12.6291 0.876911 9.98083 1.77855 7.68746 3.3C5.7172 4.61746 4.06319 6.35493 2.84423 8.38761C1.62527 10.4203 0.871638 12.6977 0.63746 15.0562C0.407739 17.3994 0.702474 19.7642 1.50028 21.9793C2.29808 24.1943 3.57895 26.204 5.24996 27.8625L15.1875 37.8188C15.3618 37.9945 15.5691 38.134 15.7976 38.2292C16.0261 38.3244 16.2712 38.3734 16.5187 38.3734C16.7662 38.3734 17.0113 38.3244 17.2398 38.2292C17.4683 38.134 17.6757 37.9945 17.85 37.8188L27.75 27.8625C29.421 26.204 30.7018 24.1943 31.4996 21.9793C32.2974 19.7642 32.5922 17.3994 32.3625 15.0562V15.0562ZM25.125 25.2187L16.5 33.8437L7.87496 25.2187C6.60388 23.9476 5.63021 22.4106 5.02396 20.7183C4.41771 19.026 4.19393 17.2204 4.36871 15.4312C4.54462 13.6146 5.12202 11.8597 6.05915 10.2935C6.99629 8.72723 8.26975 7.38882 9.78746 6.375C11.7767 5.05357 14.1118 4.34868 16.5 4.34868C18.8881 4.34868 21.2232 5.05357 23.2125 6.375C24.7256 7.38491 25.9962 8.7174 26.9331 10.2768C27.87 11.8361 28.45 13.5836 28.6312 15.3938C28.8117 17.1889 28.5907 19.0018 27.9843 20.701C27.3779 22.4003 26.4012 23.9434 25.125 25.2187V25.2187ZM16.5 8.25C14.8312 8.25 13.1999 8.74485 11.8123 9.67197C10.4248 10.5991 9.34334 11.9169 8.70473 13.4586C8.06611 15.0004 7.89902 16.6969 8.22458 18.3336C8.55015 19.9703 9.35374 21.4737 10.5337 22.6537C11.7138 23.8337 13.2172 24.6373 14.8539 24.9629C16.4906 25.2884 18.1871 25.1213 19.7289 24.4827C21.2706 23.8441 22.5884 22.7627 23.5155 21.3751C24.4426 19.9876 24.9375 18.3563 24.9375 16.6875C24.9325 14.4513 24.042 12.308 22.4607 10.7268C20.8794 9.14549 18.7362 8.25495 16.5 8.25V8.25ZM16.5 21.375C15.5729 21.375 14.6666 21.1001 13.8957 20.585C13.1249 20.0699 12.5241 19.3379 12.1693 18.4813C11.8145 17.6248 11.7217 16.6823 11.9025 15.773C12.0834 14.8637 12.5298 14.0285 13.1854 13.3729C13.841 12.7174 14.6762 12.2709 15.5855 12.0901C16.4948 11.9092 17.4373 12.002 18.2938 12.3568C19.1503 12.7116 19.8824 13.3124 20.3975 14.0833C20.9125 14.8541 21.1875 15.7604 21.1875 16.6875C21.1875 17.9307 20.6936 19.123 19.8145 20.0021C18.9354 20.8811 17.7432 21.375 16.5 21.375V21.375Z" fill="black"/>
</svg>
