<svg width="39" height="39" viewBox="0 0 39 39" fill="none" xmlns="http://www.w3.org/2000/svg">
<path d="M20.6063 21.375L16.2937 25.6688C16.118 25.8431 15.9785 26.0504 15.8833 26.2789C15.7881 26.5074 15.7391 26.7525 15.7391 27C15.7391 27.2475 15.7881 27.4926 15.8833 27.7211C15.9785 27.9496 16.118 28.1569 16.2937 28.3313C16.4681 28.507 16.6754 28.6465 16.9039 28.7417C17.1324 28.8369 17.3775 28.8859 17.625 28.8859C17.8725 28.8859 18.1176 28.8369 18.3461 28.7417C18.5746 28.6465 18.7819 28.507 18.9562 28.3313L26.4562 20.8313C26.627 20.6529 26.7608 20.4427 26.85 20.2125C27.0375 19.756 27.0375 19.244 26.85 18.7875C26.7608 18.5573 26.627 18.3471 26.4562 18.1688L18.9562 10.6688C18.7814 10.4939 18.5739 10.3553 18.3455 10.2606C18.1171 10.166 17.8722 10.1173 17.625 10.1173C17.3778 10.1173 17.1329 10.166 16.9045 10.2606C16.6761 10.3553 16.4686 10.4939 16.2937 10.6688C16.1189 10.8436 15.9803 11.0511 15.8856 11.2795C15.791 11.508 15.7423 11.7528 15.7423 12C15.7423 12.2472 15.791 12.4921 15.8856 12.7205C15.9803 12.9489 16.1189 13.1564 16.2937 13.3313L20.6063 17.625H2.625C2.12772 17.625 1.65081 17.8225 1.29917 18.1742C0.947544 18.5258 0.75 19.0027 0.75 19.5C0.75 19.9973 0.947544 20.4742 1.29917 20.8258C1.65081 21.1775 2.12772 21.375 2.625 21.375H20.6063ZM19.5 0.750004C15.9958 0.734359 12.5573 1.70103 9.57463 3.54036C6.59192 5.3797 4.18435 8.01808 2.625 11.1563C2.40122 11.6038 2.3644 12.1219 2.52264 12.5966C2.68087 13.0713 3.0212 13.4637 3.46875 13.6875C3.9163 13.9113 4.43442 13.9481 4.90912 13.7899C5.38382 13.6316 5.77622 13.2913 6 12.8438C7.18536 10.45 8.98844 8.41616 11.2229 6.95248C13.4574 5.4888 16.0422 4.64835 18.7102 4.51799C21.3782 4.38763 24.0326 4.97208 26.3991 6.21096C28.7656 7.44984 30.7584 9.29819 32.1715 11.565C33.5845 13.8318 34.3667 16.4348 34.437 19.1051C34.5073 21.7754 33.8634 24.416 32.5716 26.754C31.2798 29.0921 29.3871 31.0428 27.0891 32.4046C24.7911 33.7663 22.1712 34.4897 19.5 34.5C16.7042 34.5121 13.9615 33.7357 11.5869 32.2598C9.21231 30.784 7.30192 28.6685 6.075 26.1563C5.85122 25.7087 5.45882 25.3684 4.98412 25.2101C4.50942 25.0519 3.9913 25.0887 3.54375 25.3125C3.0962 25.5363 2.75587 25.9287 2.59764 26.4034C2.4394 26.8781 2.47622 27.3962 2.7 27.8438C4.18655 30.8353 6.44535 33.3754 9.24276 35.2013C12.0402 37.0272 15.2746 38.0726 18.6115 38.2294C21.9484 38.3861 25.2665 37.6485 28.2228 36.0928C31.179 34.5372 33.666 32.22 35.4264 29.3809C37.1868 26.5419 38.1568 23.284 38.2359 19.9444C38.3151 16.6048 37.5006 13.3046 35.8767 10.3853C34.2528 7.46601 31.8785 5.03357 28.9993 3.33958C26.1201 1.64559 22.8406 0.751572 19.5 0.750004Z" fill="black"/>
</svg>
