<svg width="39" height="39" viewBox="0 0 39 39" fill="none" xmlns="http://www.w3.org/2000/svg">
<path d="M36.5062 28.5562L32.625 24.5812C31.7901 23.7876 30.737 23.2618 29.601 23.0713C28.465 22.8809 27.298 23.0345 26.25 23.5125L24.5625 21.8249C26.551 19.1679 27.4592 15.8562 27.1041 12.5565C26.7491 9.25681 25.1572 6.21412 22.6489 4.04095C20.1406 1.86778 16.9022 0.725495 13.5856 0.844047C10.269 0.962599 7.12038 2.33318 4.77367 4.67989C2.42696 7.0266 1.05638 10.1752 0.937828 13.4918C0.819276 16.8085 1.96156 20.0469 4.13473 22.5551C6.3079 25.0634 9.3506 26.6553 12.6503 27.0103C15.95 27.3654 19.2617 26.4572 21.9187 24.4687L23.5875 26.1375C23.0533 27.1868 22.8618 28.3773 23.0401 29.5412C23.2184 30.7051 23.7574 31.7837 24.5812 32.6249L28.5562 36.5999C29.6109 37.6533 31.0406 38.245 32.5312 38.245C34.0219 38.245 35.4515 37.6533 36.5062 36.5999C37.042 36.0761 37.4677 35.4505 37.7583 34.7598C38.0489 34.0691 38.1987 33.3274 38.1987 32.5781C38.1987 31.8288 38.0489 31.087 37.7583 30.3963C37.4677 29.7057 37.042 29.0801 36.5062 28.5562ZM20.6062 20.6062C19.2942 21.9149 17.6237 22.8055 15.8057 23.1653C13.9878 23.5251 12.104 23.3381 10.3924 22.6278C8.68068 21.9175 7.21791 20.7159 6.18882 19.1747C5.15973 17.6335 4.61049 15.8219 4.61049 13.9687C4.61049 12.1155 5.15973 10.3039 6.18882 8.76269C7.21791 7.2215 8.68068 6.01987 10.3924 5.3096C12.104 4.59933 13.9878 4.41229 15.8057 4.77211C17.6237 5.13193 19.2942 6.02245 20.6062 7.3312C21.4793 8.20206 22.172 9.2366 22.6446 10.3756C23.1172 11.5145 23.3605 12.7356 23.3605 13.9687C23.3605 15.2018 23.1172 16.4229 22.6446 17.5618C22.172 18.7008 21.4793 19.7353 20.6062 20.6062ZM33.8625 33.8624C33.6882 34.0382 33.4808 34.1777 33.2523 34.2729C33.0238 34.3681 32.7788 34.4171 32.5312 34.4171C32.2837 34.4171 32.0386 34.3681 31.8102 34.2729C31.5817 34.1777 31.3743 34.0382 31.2 33.8624L27.225 29.8875C27.0492 29.7131 26.9097 29.5058 26.8146 29.2773C26.7194 29.0488 26.6704 28.8037 26.6704 28.5562C26.6704 28.3087 26.7194 28.0636 26.8146 27.8351C26.9097 27.6066 27.0492 27.3993 27.225 27.225C27.3993 27.0492 27.6067 26.9097 27.8351 26.8145C28.0636 26.7193 28.3087 26.6703 28.5562 26.6703C28.8038 26.6703 29.0488 26.7193 29.2773 26.8145C29.5058 26.9097 29.7132 27.0492 29.8875 27.225L33.8625 31.1999C34.0382 31.3743 34.1777 31.5816 34.2729 31.8101C34.3681 32.0386 34.4171 32.2837 34.4171 32.5312C34.4171 32.7787 34.3681 33.0238 34.2729 33.2523C34.1777 33.4808 34.0382 33.6881 33.8625 33.8624Z" fill="black"/>
</svg>
